<svg width="744" height="694" xmlns="http://www.w3.org/2000/svg" xmlns:xlink="http://www.w3.org/1999/xlink" overflow="hidden"><defs><clipPath id="clip0"><rect x="287" y="65" width="744" height="694"/></clipPath></defs><g clip-path="url(#clip0)" transform="translate(-287 -65)"><path d="M559.112 177.688 554.747 180.614 543.108 179.151 535.833 183.54 534.378 182.077 532.924 186.466 527.104 186.466 528.559 174.762 522.739 170.373 527.104 165.984 528.559 160.132 515.465 155.743 519.829 148.428 516.92 145.502 518.375 142.576 506.735 142.576 499.461 138.187 492.186 139.65 492.186 144.039 477.637 142.576 479.092 164.521 463.088 158.669 460.178 167.447 452.904 168.91 451.449 173.299 447.084 173.299 444.175 170.373 436.9 171.836 425.261 160.132 425.261 155.743 419.441 152.817 416.531 155.743 409.257 157.206 412.167 160.132 407.802 161.595 409.257 165.984 406.347 167.447 407.802 170.373 404.892 170.373 404.892 174.762 394.708 177.688 390.343 163.058 390.343 152.817 385.978 142.576 383.069 144.039 380.159 141.113 381.614 132.335 375.794 125.02 368.52 123.557 365.61 119.168 365.61 116.242 368.52 116.242 368.52 111.853 362.7 111.853 362.7 108.927 368.52 107.464 362.7 107.464 362.7 103.075 355.426 100.149 353.971 97.2231 348.151 97.2231 348.151 91.3711 348.151 97.2231 345.241 97.2231 346.696 91.3711 343.786 89.9081 343.786 100.149 323.418 95.7601 320.508 98.6861 303.049 103.075 300.139 101.612 294.32 110.39 292.865 125.02 288.5 126.483 288.5 130.872 291.41 133.798 288.5 142.576 297.229 142.576 297.229 145.502 303.049 148.428 304.504 155.743 317.598 164.521 319.053 167.447 314.688 168.91 337.967 171.836 349.606 185.003 356.88 182.077 368.52 185.003 368.52 201.096 375.794 208.411 378.704 208.411 375.794 220.115 388.888 227.43 388.888 231.819 391.798 231.819 391.798 234.745 406.347 237.671 409.257 234.745 413.622 236.208 419.441 233.282 422.351 236.208 420.896 237.671 429.626 243.523 439.81 237.671 442.72 239.134 448.539 250.838 454.359 246.449 454.359 242.06 461.633 249.375 461.633 258.153 465.998 265.468 473.273 265.468 471.818 281.561 467.453 288.876 471.818 293.265 477.637 290.339 492.186 291.802 490.731 290.339 496.551 290.339 499.461 285.95 508.19 288.876 514.01 284.487 519.829 284.487 524.194 288.876 528.559 288.876 525.649 290.339 527.104 302.043 519.829 309.358 518.375 331.303 512.555 328.377 508.19 334.229 508.19 347.396 505.28 351.785 500.916 351.785 503.826 354.711 500.916 363.489 496.551 364.952 496.551 369.341 498.006 372.268 502.371 370.804 502.371 375.193 509.645 385.435 524.194 381.046 528.559 372.268 532.924 375.193 534.378 392.75 531.469 392.75 535.833 397.139 538.743 410.306 546.018 413.232 535.833 419.084 535.833 426.399 537.288 430.788 543.108 429.325 546.018 436.64 543.108 439.566 547.473 445.418 553.292 443.955 553.292 449.807 559.112 452.733 564.931 448.344 564.931 451.27 585.3 451.27 586.755 448.344 601.304 451.27 604.214 448.344 602.759 430.788 612.943 430.788 612.943 422.01 615.853 422.01 615.853 416.158 621.673 413.232 628.947 417.621 636.222 413.232 640.586 414.695 639.131 422.01 643.496 422.01 644.951 427.862 650.771 435.177 662.41 436.64 665.32 448.344 666.775 474.678 662.41 474.678 662.41 470.289 660.955 474.678 658.045 476.141 659.5 479.067 656.59 487.845 647.861 493.697 642.041 483.456 636.222 486.382 628.947 479.067 621.673 477.604 624.582 473.215 617.308 476.141 614.398 470.289 608.578 473.215 607.124 470.289 601.304 471.752 601.304 468.826 588.21 474.678 586.755 471.752 579.48 473.215 579.48 476.141 585.3 480.53 586.755 484.919 583.845 489.308 588.21 492.234 596.939 492.234 594.029 502.475 598.394 511.253 595.484 512.716 596.939 515.642 592.575 517.105 592.575 528.809 588.21 533.198 578.026 533.198 573.661 536.124 572.206 534.661 572.206 543.439 556.202 555.143 557.657 562.458 553.292 575.625 567.841 584.403 567.841 588.792 572.206 590.255 569.296 600.496 575.116 601.959 578.026 607.811 585.3 603.422 591.12 604.885 591.12 607.811 596.939 610.737 589.665 619.515 595.484 622.441 599.849 620.978 599.849 623.904 605.669 615.126 610.033 618.052 608.578 619.515 611.488 625.367 614.398 622.441 618.763 623.904 620.218 626.83 620.218 656.09 614.398 661.942 605.669 664.868 605.669 660.479 604.214 661.942 599.849 675.109 598.394 673.646 601.304 678.035 605.669 678.035 610.033 685.35 650.771 685.35 650.771 682.424 658.045 675.109 663.865 675.109 663.865 679.498 665.32 678.035 672.594 682.424 678.414 679.498 681.324 680.961 684.233 675.109 685.688 691.202 687.143 692.665 690.053 689.739 690.053 694.128 692.963 692.665 698.782 697.054 707.512 697.054 713.331 701.443 713.331 704.369 716.241 704.369 726.426 695.591 730.79 697.054 735.155 694.128 740.975 694.128 746.794 697.054 746.794 694.128 754.069 697.054 758.433 694.128 770.073 717.536 787.531 730.703 810.81 732.166 818.084 729.24 818.084 739.481 825.359 736.555 825.359 733.629 828.269 736.555 828.269 743.87 831.178 746.796 829.724 749.722 834.088 758.5 836.998 758.5 844.273 746.796 853.002 743.87 855.912 745.333 860.277 739.481 861.731 742.407 864.641 739.481 864.641 733.629 860.277 727.777 861.731 726.314 869.006 727.777 871.916 721.925 876.28 720.462 882.1 723.388 889.375 718.999 889.375 708.758 883.555 704.369 886.465 699.98 899.559 701.443 912.653 697.054 909.743 679.498 912.653 679.498 912.653 676.572 922.837 676.572 918.473 672.183 919.927 667.794 917.018 667.794 917.018 664.868 921.382 661.942 921.382 656.09 924.292 654.627 921.382 653.164 933.022 647.312 933.022 644.386 934.477 647.312 947.571 641.46 951.935 635.608 921.382 603.422 917.018 603.422 931.567 588.792 937.386 585.866 944.661 585.866 953.39 591.718 959.21 601.959 973.759 606.348 981.033 612.2 1030.5 625.367 1030.5 609.274 1020.32 588.792 1015.95 572.699 1002.86 555.143 973.759 546.365 973.759 541.976 962.12 537.587 967.939 531.735 967.939 524.42 960.665 518.568 960.665 506.864 957.755 496.623 953.39 492.234 937.386 489.308 922.837 481.993 918.473 476.141 896.649 468.826 899.559 461.511 896.649 457.122 890.829 454.196 898.104 445.418 899.559 429.325 895.194 420.547 893.739 405.917 885.01 400.065 880.645 373.73 882.1 372.268 877.735 369.341 879.19 362.026 877.735 359.1 871.916 359.1 867.551 353.248 860.277 323.988 850.092 307.895 836.998 274.246 825.359 252.301 818.084 233.282 810.81 206.948 810.81 199.633 775.892 179.151 764.253 173.299 746.794 170.373 740.975 164.521 714.786 151.354 711.877 145.502 698.782 138.187 701.692 132.335 706.057 130.872 704.602 129.409 697.328 126.483 687.143 126.483 703.147 125.02 697.328 123.557 695.873 120.631 695.873 123.557 679.869 123.557 669.684 119.168 665.32 113.316 666.775 111.853 663.865 104.538 668.229 79.6671 674.049 73.8151 675.504 81.1301 678.414 81.1301 675.504 75.2781 676.959 70.8891 674.049 66.5001 659.5 67.9631 655.135 70.8891 653.68 76.7411 637.677 76.7411 618.763 81.1301 618.763 95.7601 614.398 100.149 611.488 110.39 607.124 111.853 607.124 119.168 602.759 119.168 599.849 125.02 602.759 129.409 605.669 127.946 608.578 130.872 595.484 138.187 592.575 135.261 588.21 136.724 583.845 132.335 573.661 132.335 573.661 135.261 569.296 139.65 566.386 138.187 567.841 145.502 564.931 148.428 563.477 146.965 560.567 151.354 563.477 163.058 560.567 171.836ZM618.763 639.997 618.763 642.923ZM954.845 481.993 959.21 481.993Z" stroke="#000000" stroke-linecap="round" stroke-linejoin="round" stroke-miterlimit="10" fill="#FFFFFF" fill-rule="evenodd" fill-opacity="0.2"/><path d="M646.3 491.96 641.95 483.162 636.15 486.095 628.9 478.764 621.65 477.297 624.55 472.899 617.3 475.831 614.4 469.966 608.6 472.899 607.15 469.966 601.35 471.432 601.35 468.5 588.3 474.365 586.85 471.432 579.6 472.899 579.6 475.831 585.4 480.23 586.85 484.628 583.95 489.027 588.3 491.96 597 491.96 594.1 502.223 598.45 511.02 595.55 512.487 597 515.419 592.65 516.885 592.65 528.615 588.3 533.014 578.15 533.014 573.8 535.946 572.35 534.48 572.35 543.277 556.4 555.007 557.85 562.338 553.5 575.534 568 584.331 568 588.73 572.35 590.196 569.45 600.46 575.25 601.926 578.15 607.791 585.4 603.392 591.2 604.858 591.2 607.791 597 610.723 589.75 619.52 595.55 622.453 599.9 620.987 599.9 623.919 605.7 615.122 610.05 618.054 608.6 619.52 611.5 625.385 614.4 622.453 618.75 623.919 620.2 626.851 620.2 656.176 617.3 660.574 605.7 664.973 605.7 660.574 599.9 670.838 599.9 675.237 598.45 673.77 601.35 678.169 605.7 678.169 610.05 685.5 650.65 685.5 650.65 682.568 657.9 675.237 660.8 675.237 665.15 667.905 663.7 663.507 659.35 662.041 659.35 653.243 655 651.777 657.9 648.845 656.45 645.912 663.7 640.047 660.8 640.047 660.8 637.115 665.15 632.716 668.05 623.919 665.15 623.919 662.25 615.122 644.85 597.527 634.7 601.926 637.6 596.061 633.25 591.662 650.65 585.797 652.1 577 646.3 574.068 643.4 575.534 640.5 572.601 643.4 569.669 650.65 571.135 653.55 568.203 649.2 559.405 650.65 550.608 647.75 547.676 644.85 549.142 637.6 546.21 655 534.48 662.25 535.946 669.5 531.547 660.8 527.149 647.75 527.149 641.95 524.216 640.5 511.02 643.4 508.088 639.05 499.291 643.4 491.96ZM618.75 640.047 618.75 642.98Z" stroke="#333333" stroke-width="0.500052" stroke-linecap="round" stroke-linejoin="round" stroke-miterlimit="10" stroke-dasharray="-0.125013 2.75029" fill="#FFFFFF" fill-rule="evenodd" fill-opacity="0.2"/><path d="M707.955 697.16 713.773 701.564 713.773 704.5 716.682 704.5 726.864 695.692 731.227 697.16 735.591 694.223 741.409 694.223 747.227 697.16 747.227 694.223 754.5 697.16 785.046 681.011 798.136 667.798 814.136 657.521 825.773 651.649 838.864 650.181 844.682 641.372 849.046 638.436 849.046 641.372 850.5 639.904 849.046 631.096 843.227 631.096 841.773 628.16 849.046 625.223 849.046 619.351 846.136 619.351 844.682 616.415 849.046 610.543 847.591 598.798 840.318 598.798 840.318 591.458 830.136 581.181 819.955 578.245 821.409 576.777 818.5 566.5 801.046 575.309 779.227 572.372 773.409 569.436 770.5 572.372 770.5 575.309 773.409 576.777 769.046 581.181 771.955 584.117 771.955 592.926 776.318 592.926 783.591 587.053 795.227 587.053 792.318 592.926 796.682 603.202 790.864 603.202 789.409 616.415 786.5 614.947 786.5 620.819 777.773 631.096 779.227 635.5 783.591 635.5 782.136 636.968 786.5 642.84 783.591 648.713 777.773 653.117 774.864 664.862 782.136 666.33 783.591 669.266 777.773 669.266 773.409 664.862 776.318 644.309 766.136 641.372 766.136 638.436 761.773 635.5 751.591 635.5 750.136 638.436 747.227 638.436 744.318 635.5 734.136 634.032 728.318 626.692 725.409 626.692 722.5 628.16 721.046 634.032 718.136 634.032 715.227 642.84 712.318 642.84 712.318 647.245 715.227 648.713 713.773 654.585 710.864 653.117 710.864 657.521 707.955 657.521 709.409 660.458 706.5 683.947 710.864 686.883 709.409 694.223Z" stroke="#333333" stroke-width="0.500052" stroke-linecap="round" stroke-linejoin="round" stroke-miterlimit="10" stroke-dasharray="-0.125013 2.75029" fill="#FFFFFF" fill-rule="evenodd" fill-opacity="0.2"/><path d="M559.529 177.558 555.157 180.493 543.5 179.025 536.214 183.428 534.757 181.96 533.3 186.363 527.471 186.363 528.929 174.622 523.1 170.219 527.471 165.817 528.929 159.946 515.814 155.543 520.186 148.205 517.271 145.27 518.729 142.335 507.071 142.335 499.786 137.932 492.5 139.399 492.5 143.802 477.929 142.335 479.386 164.349 463.357 158.478 460.443 167.284 453.157 168.752 451.7 173.155 447.329 173.155 444.414 170.219 437.129 171.687 425.471 159.946 425.471 155.543 419.643 152.608 416.729 155.543 409.443 157.011 412.357 159.946 407.986 161.414 409.443 165.817 406.529 167.284 407.986 170.219 405.071 170.219 405.071 174.622 394.871 177.558 390.5 162.881 390.5 152.608 386.129 142.335 383.214 143.802 380.3 140.867 381.757 132.061 375.929 124.723 368.643 123.255 365.729 118.853 365.729 115.917 368.643 115.917 368.643 111.514 362.814 111.514 362.814 108.579 368.643 107.112 362.814 107.112 362.814 102.709 355.529 99.7734 354.071 96.8382 348.243 96.8382 348.243 90.9677 348.243 96.8382 345.329 96.8382 346.786 90.9677 343.871 89.5001 343.871 99.7734 323.471 95.3706 320.557 98.3058 303.072 102.709 300.157 101.241 294.329 110.047 292.871 124.723 288.5 126.191 288.5 130.594 291.414 133.529 288.5 142.335 297.243 142.335 297.243 145.27 303.072 148.205 304.529 155.543 317.643 164.349 319.1 167.284 314.729 168.752 338.043 171.687 349.7 184.896 356.986 181.96 368.643 184.896 368.643 201.04 375.929 208.378 378.843 208.378 375.929 220.119 389.043 227.457 389.043 231.86 391.957 231.86 391.957 234.795 406.529 237.73 409.443 234.795 413.814 236.263 419.643 233.327 422.557 236.263 421.1 237.73 429.843 243.601 440.043 237.73 442.957 239.198 448.786 250.939 454.614 246.536 454.614 242.133 461.9 249.471 461.9 258.277 466.271 265.615 473.557 265.615 472.1 281.759 467.729 289.097 472.1 293.5 477.929 290.565 492.5 292.032 491.043 290.565 496.871 290.565 499.786 286.162 505.614 289.097 514.357 284.694 520.186 284.694 524.557 289.097 528.929 286.162 526.014 280.291 530.386 275.889 528.929 270.018 521.643 255.342 520.186 258.277 515.814 256.809 515.814 253.874 509.986 250.939 508.529 248.004 509.986 245.068 512.9 246.536 512.9 239.198 511.443 233.327 505.614 233.327 505.614 224.522 512.9 223.054 514.357 220.119 523.1 225.989 526.014 223.054 524.557 221.586 530.386 221.586 536.214 231.86 543.5 231.86 544.957 228.924 569.729 231.86 574.1 228.924 571.186 227.457 574.1 220.119 579.929 221.586 581.386 199.572 588.672 196.637 587.214 192.234 590.129 186.363 594.5 183.428 594.5 180.493 590.129 176.09 582.843 177.558 582.843 180.493 574.1 176.09 566.814 181.96 560.986 179.025 559.529 180.493Z" stroke="#333333" stroke-width="0.500052" stroke-linecap="round" stroke-linejoin="round" stroke-miterlimit="10" stroke-dasharray="-0.125013 2.75029" fill="#FFFFFF" fill-rule="evenodd" fill-opacity="0.2"/><path d="M773.167 569.625 765.875 563.792 758.583 563.792 752.75 556.5 744 556.5 739.625 562.333 739.625 572.542 742.542 576.917 738.167 576.917 741.083 578.375 736.708 584.208 739.625 588.583 745.458 588.583 741.083 594.417 742.542 595.875 738.167 594.417 735.25 607.542 730.875 606.083 720.667 595.875 719.208 597.333 713.375 587.125 704.625 588.583 695.875 582.75 692.958 585.667 695.875 591.5 694.417 592.958 682.75 587.125 676.917 601.708 676.917 606.083 679.833 607.542 681.292 611.917 676.917 619.208 668.167 623.583 660.875 639.625 663.792 638.167 656.5 645.458 659.417 660.042 663.792 662.958 665.25 667.333 660.875 674.625 663.792 674.625 663.792 679 665.25 677.542 672.542 681.917 678.375 679 681.292 680.458 684.208 674.625 684.208 687.75 687.125 692.125 690.042 689.208 690.042 693.583 692.958 692.125 698.792 696.5 707.542 696.5 710.458 687.75 706.083 674.625 709 660.042 707.542 657.125 710.458 657.125 710.458 652.75 713.375 654.208 716.292 648.375 711.917 648.375 711.917 644 725.042 626.5 727.958 626.5 732.333 633.792 742.542 635.25 746.917 638.167 749.833 638.167 751.292 635.25 761.5 635.25 765.875 638.167 768.792 644 774.625 644 776.083 646.917 773.167 664.417 774.625 667.333 781.917 668.792 781.917 665.875 777.542 665.875 774.625 661.5 777.542 652.75 784.833 648.375 786.292 642.542 784.833 639.625 783.375 641.083 783.375 636.708 777.542 633.792 777.542 630.875 786.292 622.125 786.292 614.833 789.208 616.292 790.667 603.167 796.5 603.167 792.125 592.958 795.042 587.125 783.375 587.125 776.083 592.958 771.708 592.958 768.792 587.125 771.708 585.667 768.792 581.292 773.167 576.917 770.25 575.458 770.25 572.542Z" stroke="#333333" stroke-width="0.500052" stroke-linecap="round" stroke-linejoin="round" stroke-miterlimit="10" stroke-dasharray="-0.125013 2.75029" fill="#FFFFFF" fill-rule="evenodd" fill-opacity="0.2"/><path d="M758.5 693.945 770.109 717.42 787.523 730.624 810.741 732.091 817.996 729.157 817.996 739.427 825.252 736.493 825.252 733.558 828.154 736.493 828.154 743.828 831.056 746.763 829.605 749.697 833.959 758.5 836.861 758.5 844.117 746.763 852.823 743.828 855.726 745.296 860.079 739.427 861.53 742.361 864.432 739.427 864.432 733.558 860.079 727.69 861.53 726.223 868.786 727.69 871.688 721.821 876.041 720.354 881.846 723.288 889.102 718.887 889.102 708.617 883.297 704.215 886.199 699.814 899.259 701.281 912.32 696.88 909.417 679.274 912.32 679.274 912.32 676.339 922.477 676.339 918.124 671.938 919.575 667.537 916.673 667.537 916.673 664.602 921.026 661.668 921.026 655.799 923.929 654.332 921.026 652.865 932.635 646.996 932.635 644.062 934.087 646.996 947.147 641.128 951.5 635.259 921.026 602.982 916.673 602.982 909.417 598.58 890.553 597.113 873.139 561.902 852.823 564.836 838.312 560.434 836.861 557.5 831.056 557.5 817.996 566.303 820.899 575.106 819.447 578.04 829.605 580.974 839.763 591.245 839.763 598.58 847.019 598.58 848.47 610.318 844.117 614.719 844.117 619.12 848.47 619.12 848.47 623.522 844.117 627.923 841.214 627.923 842.665 630.858 848.47 630.858 849.921 639.661 848.47 641.128 848.47 638.193 844.117 641.128 838.312 649.931 825.252 651.398 813.643 657.266 797.681 667.537 784.62 680.741Z" stroke="#333333" stroke-width="0.500052" stroke-linecap="round" stroke-linejoin="round" stroke-miterlimit="10" stroke-dasharray="-0.125013 2.75029" fill="#FFFFFF" fill-rule="evenodd" fill-opacity="0.2"/><path d="M796.5 470.093 799.407 473.025 803.767 471.559 805.221 474.492 808.127 506.746 811.034 508.212 816.848 505.28 816.848 544.864 825.568 544.864 837.196 550.729 838.649 555.127 843.009 556.593 843.009 562.458 847.37 563.924 856.09 565.39 863.357 562.458 873.531 562.458 890.972 597.644 909.867 599.11 917.134 603.509 931.668 588.848 937.481 585.915 944.749 585.915 953.469 591.78 959.283 602.042 973.817 606.441 981.084 612.305 1030.5 625.5 1030.5 609.373 1020.33 588.848 1015.97 572.72 1002.89 555.127 973.817 546.331 973.817 541.932 962.19 537.534 968.003 531.67 968.003 524.339 960.736 518.475 960.736 506.746 957.829 496.483 953.469 492.085 937.481 489.153 922.947 481.822 918.587 475.958 896.786 468.627 899.693 461.297 883.705 465.695 883.705 468.627 874.985 474.492 874.985 470.093 867.717 470.093 867.717 473.025 861.904 470.093 857.544 474.492 853.183 467.161 851.73 470.093 851.73 465.695 848.823 462.763 841.556 465.695 837.196 464.229 835.742 467.161 828.475 465.695 827.022 458.364 819.755 452.5 812.488 455.432 811.034 453.966 806.674 458.364 799.407 458.364 800.86 462.763 797.953 470.093ZM954.922 481.822 959.283 481.822Z" stroke="#333333" stroke-width="0.500052" stroke-linecap="round" stroke-linejoin="round" stroke-miterlimit="10" stroke-dasharray="-0.125013 2.75029" fill="#FFFFFF" fill-rule="evenodd" fill-opacity="0.2"/><path d="M746.5 170.183 740.702 164.341 714.609 151.198 711.709 145.357 698.663 138.056 701.562 132.214 705.911 130.754 704.461 129.294 697.213 126.373 687.066 126.373 703.012 124.913 697.213 123.452 695.764 120.532 695.764 123.452 679.818 123.452 669.671 119.071 665.322 113.23 666.771 111.77 663.872 104.468 666.771 82.5635 674.019 73.8016 675.469 81.1032 678.368 81.1032 675.469 75.262 676.919 70.881 674.019 66.5001 671.12 66.5001 659.523 67.9604 655.174 70.881 653.725 76.7223 637.779 76.7223 618.934 81.1032 618.934 95.7064 614.585 100.087 611.686 110.31 607.337 111.77 607.337 119.071 602.988 119.071 600.089 124.913 602.988 129.294 605.888 127.833 608.787 130.754 595.74 138.056 592.841 135.135 588.492 136.595 584.143 132.214 573.996 132.214 573.996 135.135 569.647 139.516 566.748 138.056 568.198 145.357 565.299 148.278 563.849 146.818 560.95 151.198 563.849 165.802 560.95 170.183 559.5 180.405 560.95 178.944 566.748 181.865 573.996 176.024 582.694 180.405 584.143 176.024 588.492 176.024 594.291 180.405 589.942 189.167 592.841 192.087 602.988 195.008 604.438 193.548 605.888 197.929 616.035 187.706 618.934 189.167 629.081 186.246 630.531 190.627 636.33 184.786 636.33 181.865 642.128 183.325 642.128 178.944 649.376 178.944 649.376 181.865 646.477 181.865 645.027 186.246 645.027 193.548 647.926 192.087 646.477 205.23 649.376 205.23 650.826 213.992 655.174 213.992 656.624 221.294 653.725 224.214 660.973 228.595 660.973 232.976 669.671 241.738 688.516 241.738 691.415 247.579 692.864 246.119 695.764 250.5 707.361 241.738 711.709 246.119 713.159 243.198 710.26 237.357 714.609 234.437 713.159 230.056 708.81 230.056 705.911 225.675 707.361 219.833 704.461 221.294 710.26 213.992 730.554 202.31 736.353 192.087 743.601 186.246 740.702 181.865 742.151 174.564 745.05 173.103Z" stroke="#333333" stroke-width="0.500052" stroke-linecap="round" stroke-linejoin="round" stroke-miterlimit="10" stroke-dasharray="-0.125013 2.75029" fill="#FFFFFF" fill-rule="evenodd" fill-opacity="0.2"/><path d="M661.263 434.98 674.386 439.36 681.676 436.44 683.134 424.76 680.218 407.24 683.134 405.78 686.05 398.48 683.134 397.02 677.302 385.34 670.012 382.42 667.095 383.88 667.095 375.12 656.889 373.66 658.347 363.44 661.263 360.52 672.928 359.06 668.553 351.76 675.844 348.84 693.34 347.38 700.63 343 712.294 343 719.584 338.62 702.088 322.56 703.546 321.1 697.714 305.04 703.546 303.58 700.63 297.74 705.004 291.9 707.92 280.22 712.294 272.92 722.5 264.16 722.5 256.86 719.584 256.86 716.668 248.1 713.752 248.1 707.92 242.26 696.256 251.02 693.34 246.64 691.882 248.1 688.966 242.26 670.012 242.26 661.263 233.5 658.347 234.96 658.347 239.34 642.309 253.94 643.767 258.32 640.851 262.7 637.935 264.16 630.645 261.24 624.813 265.62 618.981 265.62 613.149 272.92 610.233 284.6 613.149 296.28 610.233 297.74 610.233 303.58 605.859 306.5 611.691 316.72 608.775 337.16 604.401 345.92 608.775 351.76 572.324 364.9 560.66 378.04 538.79 375.12 534.416 378.04 534.416 392.64 531.5 392.64 535.874 397.02 538.79 410.16 546.08 413.08 535.874 418.92 537.332 430.6 543.164 429.14 546.08 436.44 543.164 439.36 547.538 445.2 553.37 443.74 554.828 451.04 559.202 452.5 565.034 448.12 565.034 451.04 585.447 451.04 586.905 448.12 601.485 451.04 604.401 448.12 602.943 430.6 613.149 430.6 613.149 421.84 616.065 421.84 616.065 416 621.897 413.08 629.187 417.46 636.477 413.08 640.851 414.54 639.393 421.84 643.767 421.84 645.225 427.68 652.515 434.98Z" stroke="#333333" stroke-width="0.500052" stroke-linecap="round" stroke-linejoin="round" stroke-miterlimit="10" stroke-dasharray="-0.125013 2.75029" fill="#FFFFFF" fill-rule="evenodd" fill-opacity="0.2"/><path d="M899.5 461.346 896.587 456.962 890.761 454.039 898.044 445.269 899.5 426.269 895.13 420.423 893.674 405.808 884.935 399.962 880.565 373.654 882.022 372.192 877.652 369.269 879.109 361.962 877.652 359.039 871.826 359.039 867.457 353.192 860.174 323.962 849.978 307.885 817.935 233.346 810.652 207.039 810.652 199.731 764.044 173.423 746.565 170.5 740.739 182.192 743.652 185.115 730.544 202.654 710.152 214.346 704.326 220.192 707.239 220.192 705.783 226.039 708.696 230.423 710.152 228.962 714.522 233.346 710.152 237.731 713.065 242.115 711.609 245.039 721.804 256.731 721.804 262.577 708.696 277.192 704.326 291.808 699.957 297.654 702.87 303.5 698.5 304.962 702.87 321.039 701.413 322.5 718.891 337.115 711.609 342.962 713.065 347.346 717.435 347.346 723.261 361.962 729.087 360.5 732 363.423 729.087 372.192 733.457 373.654 733.457 379.5 736.37 379.5 736.37 386.808 748.022 382.423 765.5 383.885 780.065 378.039 797.544 385.346 809.196 386.808 809.196 416.038 806.283 418.962 799 420.423 793.174 417.5 793.174 426.269 797.544 429.192 793.174 433.577 794.63 435.039 790.261 437.962 790.261 440.885 796.087 442.346 799 439.423 799 442.346 785.891 458.423 784.435 468.654 796.087 467.192 796.087 470.115 799 458.423 806.283 458.423 810.652 454.039 812.109 455.5 819.391 452.577 831.044 465.731 835.413 467.192 835.413 464.269 851.435 464.269 851.435 470.115 852.891 467.192 857.261 474.5 861.63 470.115 867.457 473.039 867.457 470.115 874.739 470.115 874.739 474.5 889.304 464.269Z" stroke="#333333" stroke-width="0.500052" stroke-linecap="round" stroke-linejoin="round" stroke-miterlimit="10" stroke-dasharray="-0.125013 2.75029" fill="#FFFFFF" fill-rule="evenodd" fill-opacity="0.2"/><path d="M667.073 530.039 688.842 530.039 694.646 524.192 704.805 524.192 713.512 519.808 713.512 528.577 719.317 525.654 719.317 531.5 720.768 525.654 725.122 524.192 728.024 519.808 730.927 521.269 735.281 515.423 745.439 516.885 751.244 505.192 749.793 502.269 752.695 496.423 749.793 492.039 745.439 490.577 748.342 478.885 745.439 474.5 745.439 465.731 749.793 464.269 758.5 467.192 755.598 458.423 752.695 458.423 748.342 448.192 752.695 443.808 742.537 437.962 743.988 430.654 741.085 426.269 741.085 420.423 733.829 423.346 730.927 418.962 730.927 405.808 728.024 395.577 722.22 388.269 723.671 382.423 729.476 378.039 732.378 372.192 729.476 372.192 728.024 369.269 732.378 363.423 729.476 360.5 722.22 360.5 722.22 354.654 719.317 354.654 717.866 347.346 714.964 347.346 710.61 341.5 693.195 347.346 675.781 348.808 668.524 351.731 672.878 359.039 658.366 361.962 656.915 373.654 667.073 375.115 667.073 383.885 669.976 382.423 677.232 385.346 683.037 397.039 685.939 398.5 685.939 401.423 680.134 407.269 683.037 424.808 681.585 436.5 674.329 439.423 662.72 435.039 667.073 474.5 662.72 474.5 662.72 470.115 661.268 474.5 658.366 475.962 659.817 478.885 656.915 487.654 648.207 493.5 643.854 492.039 639.5 499.346 643.854 508.115 640.951 509.577 642.403 522.731 648.207 527.115 661.268 527.115Z" stroke="#333333" stroke-width="0.500052" stroke-linecap="round" stroke-linejoin="round" stroke-miterlimit="10" stroke-dasharray="-0.125013 2.75029" fill="#FFFFFF" fill-rule="evenodd" fill-opacity="0.2"/><path d="M668.313 623.5 677.017 619.122 681.368 611.824 681.368 607.446 677.017 605.987 677.017 601.608 682.819 587.014 694.423 592.851 695.874 591.392 692.973 585.554 695.874 582.635 704.577 588.473 713.28 587.014 719.082 597.23 720.533 595.77 723.434 600.149 735.039 607.446 737.94 594.311 742.291 595.77 740.841 594.311 745.192 588.473 740.841 588.473 736.489 584.095 740.841 579.716 737.94 576.797 742.291 576.797 739.39 573.878 739.39 562.203 742.291 557.824 748.093 554.905 753.896 557.824 758.247 563.662 765.5 563.662 759.698 551.987 753.896 525.716 748.093 518.419 743.742 515.5 735.039 515.5 730.687 521.338 727.786 519.878 724.885 524.257 720.533 524.257 719.082 531.554 717.632 525.716 716.181 528.635 713.28 528.635 713.28 519.878 708.929 519.878 704.577 525.716 694.423 524.257 688.621 530.095 671.214 528.635 666.863 530.095 669.764 531.554 662.511 535.932 655.258 534.473 643.654 540.311 640.753 544.689 637.852 544.689 649.456 550.527 649.456 559.284 653.808 566.581 650.907 570.96 640.753 570.96 643.654 575.338 650.907 575.338 652.357 582.635 649.456 587.014 648.006 585.554 633.5 591.392 637.852 598.689 634.951 598.689 634.951 601.608 645.104 597.23 658.159 611.824 662.511 613.284 665.412 623.5 668.313 622.041Z" stroke="#333333" stroke-width="0.500052" stroke-linecap="round" stroke-linejoin="round" stroke-miterlimit="10" stroke-dasharray="-0.125013 2.75029" fill="#FFFFFF" fill-rule="evenodd" fill-opacity="0.2"/><path d="M843.048 562.356 844.5 559.435 838.691 555.054 837.238 550.673 825.619 544.831 816.905 544.831 816.905 505.399 811.095 508.32 808.191 505.399 803.833 486.414 803.833 471.809 798.024 471.809 793.667 465.968 790.762 468.889 786.405 468.889 784.952 465.968 786.405 458.666 799.476 442.601 799.476 439.68 793.667 444.061 790.762 442.601 790.762 438.219 795.119 436.759 793.667 435.299 798.024 429.457 793.667 426.536 793.667 417.773 799.476 420.694 806.738 419.234 809.643 416.313 809.643 387.104 798.024 385.644 780.595 378.342 773.333 382.723 748.643 382.723 737.024 387.104 737.024 381.263 734.119 379.802 732.667 372.5 729.762 378.342 723.952 381.263 722.5 387.104 728.31 395.867 731.214 406.09 731.214 419.234 734.119 423.615 739.929 420.694 744.286 429.457 741.381 438.219 747.191 438.219 748.643 442.601 753 444.061 748.643 448.443 751.548 451.363 753 458.666 755.905 458.666 758.81 467.428 747.191 464.507 745.738 465.968 745.738 474.73 748.643 479.112 745.738 490.795 750.095 492.255 753 496.637 750.095 501.018 750.095 514.162 745.738 517.083 754.452 525.845 760.262 552.133 766.071 563.817 771.881 569.658 779.143 572.579 800.929 575.5 816.905 568.198 831.429 557.975 837.238 557.975 838.691 560.896Z" stroke="#333333" stroke-width="0.500052" stroke-linecap="round" stroke-linejoin="round" stroke-miterlimit="10" stroke-dasharray="-0.125013 2.75029" fill="#FFFFFF" fill-rule="evenodd" fill-opacity="0.2"/><path d="M661.5 233.557 661.5 229.174 657.12 224.791 654.199 224.791 657.12 221.869 655.659 214.564 651.279 214.564 649.819 205.798 646.898 205.798 648.358 192.649 645.438 194.11 645.438 186.805 646.898 182.422 649.819 182.422 649.819 179.5 642.518 179.5 642.518 182.422 636.677 182.422 636.677 185.344 630.836 191.188 629.376 186.805 619.155 189.727 616.235 188.266 606.013 198.493 604.553 194.11 603.093 195.571 589.951 189.727 587.031 192.649 588.491 197.032 581.19 199.954 579.73 204.337 579.73 221.869 573.889 220.408 570.969 226.252 573.889 229.174 566.589 232.096 554.907 229.174 544.686 229.174 535.925 232.096 530.084 221.869 525.704 221.869 524.243 226.252 518.403 224.791 514.022 220.408 512.562 223.33 505.261 224.791 503.801 230.635 506.721 235.018 511.102 233.557 512.562 239.401 512.562 245.245 509.642 245.245 508.181 248.167 515.482 256.933 519.863 258.394 519.863 255.472 522.783 258.394 530.084 275.926 525.704 280.309 528.624 286.153 528.624 289.075 525.704 290.535 527.164 302.223 519.863 309.528 518.403 331.443 512.562 328.521 508.181 334.365 508.181 347.514 505.261 351.897 500.881 351.897 503.801 354.819 502.341 360.663 500.881 363.585 496.5 365.046 497.96 372.351 502.341 370.89 502.341 375.273 509.642 385.5 524.243 381.117 528.624 372.351 534.465 378.195 538.845 375.273 560.748 378.195 572.429 365.046 608.934 351.897 604.553 346.053 608.934 337.287 611.854 316.833 606.013 306.606 610.394 303.684 610.394 297.84 613.314 296.379 610.394 277.387 614.774 270.082 620.615 265.699 633.757 261.316 638.137 264.238 641.058 262.777 643.978 254.011 658.58 239.401 660.04 233.557Z" stroke="#333333" stroke-width="0.500052" stroke-linecap="round" stroke-linejoin="round" stroke-miterlimit="10" stroke-dasharray="-0.125013 2.75029" fill="#FFFFFF" fill-rule="evenodd" fill-opacity="0.2"/></g></svg>